Coordinates
version=1
nRows=12
nColumns=28
inDegrees=yes

Units are S.I. units (second, meters, Newtons, ...)
Angles are in degrees.

endheader
time	pelvis_tilt	pelvis_list	pelvis_rotation	pelvis_tx	pelvis_ty	pelvis_tz	hip_flexion_r	hip_adduction_r	hip_rotation_r	knee_angle_r	ankle_angle_r	subtalar_angle_r	mtp_angle_r	hip_flexion_l	hip_adduction_l	hip_rotation_l	knee_angle_l	socket_flexion	socket_adduction	socket_rotation	socket_tx	socket_ty	socket_tz	foot_flex	lumbar_extension	lumbar_bending	lumbar_rotation
      0.97916667	      9.75824093	      3.81930226	     -5.46617040	      0.40024513	      1.03335176	      0.26757317	     -1.93334484	      0.26079900	      2.21129419	    -21.48419545	     10.71494279	     -8.45682474	     30.72610806	     -1.83662429	      1.12145214	     -5.28679300	    -54.86520401	      0.00000000	      0.00000000	      0.00000000	      0.00000000	      0.01596438	      0.00000000	      6.03260271	    -18.46915402	     -4.85046993	      9.27424817
      0.98333333	      9.80090482	      3.99967375	     -5.70070918	      0.40496707	      1.03417199	      0.26806099	     -2.41948145	     -0.00006741	      2.29953125	    -21.12520125	     10.67080057	     -8.22581913	     30.78464367	     -1.31161606	      1.24871548	     -5.20558037	    -54.59018303	      0.00000000	      0.00000000	      0.00000000	      0.00000000	      0.01595426	      0.00000000	      6.03570503	    -18.46421352	     -5.16679750	      9.48849276
      0.98750000	      9.89875444	      4.16106529	     -6.01595818	      0.40951215	      1.03498468	      0.26851957	     -2.86876399	     -0.28396102	      2.33577858	    -20.91366278	     10.57108605	     -7.78580960	     30.98823943	     -0.86523113	      1.39045931	     -5.16615067	    -54.25397275	      0.00000000	      0.00000000	      0.00000000	      0.00000000	      0.01584820	      0.00000000	      6.00115685	    -18.55882826	     -5.51022230	      9.97427873
      0.99166667	      9.90529683	      4.26455142	     -6.24178907	      0.41428347	      1.03566742	      0.26890416	     -3.29958996	     -0.48024585	      2.34009725	    -20.60094707	     10.59741483	     -7.60702812	     31.06039953	     -0.35653733	      1.43961513	     -5.08825398	    -53.87512244	      0.00000000	      0.00000000	      0.00000000	      0.00000000	      0.01565700	      0.00000000	      6.02206993	    -18.52464414	     -5.70822589	     10.10243614
      0.99583333	      9.91013570	      4.37386160	     -6.45774828	      0.41890120	      1.03633019	      0.26923468	     -3.71573610	     -0.68154167	      2.37898857	    -20.28958324	     10.56430062	     -7.38450274	     31.13199779	      0.16468176	      1.51601054	     -4.95347697	    -53.46580959	      0.00000000	      0.00000000	      0.00000000	      0.00000000	      0.01545923	      0.00000000	      6.00230210	    -18.51214363	     -5.91380424	     10.26759121
      1.00000000	      9.91196995	      4.46344269	     -6.67809845	      0.42349917	      1.03693039	      0.26954532	     -4.11494826	     -0.87034480	      2.38967050	    -20.00172730	     10.52008105	     -7.16522924	     31.20050100	      0.67469610	      1.57752570	     -4.81202681	    -53.01814860	      0.00000000	      0.00000000	      0.00000000	      0.00000000	      0.01520899	      0.00000000	      5.98887226	    -18.49107379	     -6.09456275	     10.43763715
      1.00416667	      9.94046026	      4.44039551	     -6.92164033	      0.42757652	      1.03743344	      0.26987793	     -4.38449222	     -0.93895277	      2.33066295	    -19.99633255	     10.51634883	     -7.12853656	     31.20315961	      1.21699068	      1.50036503	     -4.72202263	    -52.65751399	      0.00000000	      0.00000000	      0.00000000	      0.00000000	      0.01499573	      0.00000000	      6.01006409	    -18.61525282	     -6.14191416	     10.46451821
      1.00833333	      9.86886067	      4.58743877	     -7.07222832	      0.43254117	      1.03796314	      0.27011080	     -4.84664052	     -1.17099763	      2.41489626	    -19.46047108	     10.44292882	     -6.80202732	     31.28217701	      1.70784096	      1.64847865	     -4.45459288	    -51.99831823	      0.00000000	      0.00000000	      0.00000000	      0.00000000	      0.01458109	      0.00000000	      5.95050676	    -18.43443462	     -6.38256866	     10.70889888
      1.01250000	      9.89526245	      4.55651173	     -7.30678147	      0.43646274	      1.03839646	      0.27044223	     -5.10000236	     -1.23105306	      2.35220318	    -19.45936732	     10.43464458	     -6.76243057	     31.28483352	      2.26380634	      1.55984580	     -4.35974011	    -51.60469998	      0.00000000	      0.00000000	      0.00000000	      0.00000000	      0.01448856	      0.00000000	      5.97006034	    -18.57663986	     -6.42138019	     10.73958680
      1.01666667	      9.79153821	      4.64167819	     -7.42797548	      0.44140860	      1.03877866	      0.27055014	     -5.51338382	     -1.39913063	      2.41273750	    -18.96603123	     10.33934330	     -6.41369114	     31.36871029	      2.72063282	      1.66248428	     -4.01785597	    -50.80702513	      0.00000000	      0.00000000	      0.00000000	      0.00000000	      0.01375324	      0.00000000	      5.88167824	    -18.37350379	     -6.57228965	     11.00708844
      1.02083333	      9.81269454	      4.60159600	     -7.64868582	      0.44520394	      1.03914189	      0.27086988	     -5.75414813	     -1.45026065	      2.34565599	    -18.96207827	     10.32981682	     -6.37008924	     31.37290155	      3.28686060	      1.55910302	     -3.92016338	    -50.37926284	      0.00000000	      0.00000000	      0.00000000	      0.00000000	      0.01378550	      0.00000000	      5.90070158	    -18.52583102	     -6.60905353	     11.03981866
      1.02500000	      9.66794840	      4.58215945	     -7.80475185	      0.45022788	      1.03928107	      0.27085604	     -6.04621334	     -1.57946289	      2.09922471	    -18.60349937	     10.17217165	     -5.18773863	     32.18079436	      3.69220627	      1.55996409	     -3.59692357	    -49.45619782	      0.00000000	      0.00000000	      0.00000000	      0.00000000	      0.01258427	      0.00000000	      5.75227839	    -18.27138831	     -6.67281236	     11.81831919
